<?xml version="1.0" encoding="UTF-8"?>
<svg version="1.1" xmlns="http://www.w3.org/2000/svg" width="2000" height="2000">
<path d="M0 0 C660 0 1320 0 2000 0 C2000 660 2000 1320 2000 2000 C1340 2000 680 2000 0 2000 C0 1340 0 680 0 0 Z " fill="#EEEEEE" transform="translate(0,0)"/>
<path d="M0 0 C315.15 0 630.3 0 955 0 C955 101.64 955 203.28 955 308 C639.85 308 324.7 308 0 308 C0 206.36 0 104.72 0 0 Z " fill="#F32132" transform="translate(205,796)"/>
<path d="M0 0 C1.16909912 -0.0071553 2.33819824 -0.01431061 3.54272461 -0.02168274 C4.82690277 -0.02437164 6.11108093 -0.02706055 7.43417358 -0.02983093 C8.79930799 -0.03609707 10.16444069 -0.04274401 11.52957153 -0.04974365 C16.01517553 -0.07077442 20.50077981 -0.08114738 24.98641968 -0.09111023 C26.53245435 -0.09515862 28.07848885 -0.09927556 29.62452316 -0.10346031 C36.89086282 -0.12251243 44.15719233 -0.13674155 51.42355216 -0.14507228 C59.80014658 -0.1548352 68.17647608 -0.18112971 76.5529772 -0.22157317 C83.03380636 -0.25178532 89.51455982 -0.26654611 95.99545801 -0.26985329 C99.86294269 -0.27219863 103.73014438 -0.28109078 107.59755325 -0.30631447 C111.24036143 -0.32968885 114.88270221 -0.33379129 118.5255661 -0.32355309 C120.48835773 -0.32282592 122.45112612 -0.34185267 124.41381836 -0.36161804 C133.33553766 -0.30938377 139.21917734 1.42345728 146.63485718 6.27217102 C153.91705592 13.88537879 155.1169686 21.76915941 155.01304626 31.98202515 C155.02014065 33.24195343 155.02723504 34.50188171 155.03454441 35.79998964 C155.05336474 39.27194831 155.04129188 42.74319664 155.02382147 46.21513665 C155.01039537 49.96912439 155.02590319 53.72301176 155.03764343 57.47698975 C155.05598496 64.82076235 155.04753139 72.1642682 155.02955521 79.50803239 C155.01550833 85.47789231 155.01164089 91.44767999 155.01499748 97.41755486 C155.01547492 98.26841271 155.01595237 99.11927057 155.01644428 99.995912 C155.01747064 101.72460109 155.018526 103.45329017 155.01961004 105.18197923 C155.02816991 120.4543653 155.01152473 135.72662287 154.98178101 150.99897766 C154.95294027 165.80795182 154.94586339 180.61674093 154.96127319 195.42573547 C154.97804484 211.56549472 154.98206013 227.70516618 154.96456283 243.84492773 C154.96271851 245.56681946 154.96088378 247.2887112 154.95905876 249.01060295 C154.95814667 249.85773263 154.95723458 250.7048623 154.95629485 251.57766258 C154.95069584 257.53875977 154.95399066 263.49981403 154.96060371 269.46090889 C154.96834551 276.72770755 154.96155378 283.99432424 154.93642867 291.26108629 C154.92395374 294.96657413 154.91776255 298.67177894 154.92897034 302.37727737 C154.94090235 306.3982131 154.92171407 310.41840842 154.89952087 314.43930054 C154.90776164 315.60467584 154.91600241 316.77005115 154.9244929 317.97074085 C154.83751273 326.5102662 152.94403788 332.34495969 148.19735718 339.39717102 C140.36766457 347.05287046 133.05788786 347.87788595 122.3789978 347.79414368 C120.98341231 347.80093101 119.58783579 347.80984038 118.192276 347.82069397 C114.42556965 347.8433621 110.65955302 347.83470351 106.89283562 347.81879854 C102.93723671 347.8060742 98.98169394 347.81789769 95.02609253 347.82572937 C88.38531981 347.83480704 81.74482579 347.82288777 75.10409546 347.79902649 C67.44387745 347.77181859 59.78432499 347.78063411 52.1241231 347.80815852 C45.52846882 347.83090257 38.93301405 347.83402393 32.3373332 347.82096517 C28.40623038 347.8131996 24.47543964 347.81204862 20.5443573 347.82864761 C16.84712124 347.84317079 13.15073704 347.83292988 9.4535923 347.80417633 C7.46228304 347.79449174 5.4709011 347.80919859 3.47962952 347.82481384 C-5.03476986 347.7249913 -11.14333917 346.33340939 -17.45886993 340.42118263 C-24.68258253 332.93688378 -25.05288758 324.47742965 -24.99609375 314.58406067 C-25.00077372 313.32921922 -25.00545369 312.07437778 -25.01027548 310.78151083 C-25.02275568 307.31466466 -25.01662885 303.84806744 -25.00731683 300.38122058 C-25.00051438 296.6360984 -25.01101348 292.8910183 -25.01925659 289.14590454 C-25.03258338 281.81562413 -25.0297209 274.48543596 -25.02101867 267.15515196 C-25.01423838 261.19668867 -25.0133269 255.2382512 -25.01659012 249.27978516 C-25.01704982 248.43114296 -25.01750952 247.58250076 -25.01798315 246.70814213 C-25.01894234 244.98404125 -25.01991498 243.25994037 -25.02090092 241.5358395 C-25.02945173 225.37602248 -25.01962554 209.21625656 -25.00349982 193.05644792 C-24.99009692 179.19620114 -24.9924251 165.33602973 -25.0062561 151.4757843 C-25.02231738 135.37305476 -25.02862778 119.27036997 -25.01941931 103.16763353 C-25.01846368 101.44994132 -25.01752057 99.73224911 -25.01659012 98.01455688 C-25.01612729 97.16946063 -25.01566447 96.32436438 -25.01518761 95.45365915 C-25.01259937 89.50364105 -25.01696515 83.55365139 -25.02402878 77.6036377 C-25.03245006 70.35070581 -25.03015045 63.09787131 -25.01418655 55.84495056 C-25.00631226 52.14571262 -25.00319777 48.44663695 -25.013134 44.74740028 C-25.02374856 40.73488657 -25.0110585 36.72278115 -24.99609375 32.71028137 C-25.00278592 31.54451993 -25.00947808 30.3787585 -25.01637304 29.17767096 C-24.94873784 19.83718459 -23.46795644 12.99998463 -16.61514282 6.14717102 C-11.15293384 2.19214691 -6.83774046 0.02870559 0 0 Z " fill="#519ECE" transform="translate(1609.6151428222656,686.8528289794922)"/>
<path d="M0 0 C1.22525391 -0.01224609 2.45050781 -0.02449219 3.71289062 -0.03710938 C15.39526447 -0.0555844 26.80228162 0.98378209 37.875 4.875 C39.00905273 5.26691528 39.00905273 5.26691528 40.16601562 5.66674805 C51.69956044 9.79406759 61.15100879 15.41869828 69.8125 24.1875 C70.44800781 24.80109375 71.08351563 25.4146875 71.73828125 26.046875 C82.91932327 37.64937537 87.3412867 53.47616509 87.10546875 69.19921875 C87.10244751 70.17105103 87.09942627 71.1428833 87.09631348 72.14416504 C87.08079935 75.72122046 87.03891778 79.29812265 87 82.875 C86.938125 90.898125 86.87625 98.92125 86.8125 107.1875 C64.3725 107.1875 41.9325 107.1875 18.8125 107.1875 C18.3175 94.8125 18.3175 94.8125 17.8125 82.1875 C15.67931426 71.45576468 15.67931426 71.45576468 9.8125 64.1875 C6.78093143 62.67171572 3.93283386 62.93778073 0.5625 62.875 C-1.39429688 62.81892578 -1.39429688 62.81892578 -3.390625 62.76171875 C-7.76410618 63.25216057 -9.80312295 64.43427696 -13.1875 67.1875 C-17.93512133 73.21826222 -18.3397439 78.27203252 -18.30102539 85.73168945 C-18.30117142 86.47369095 -18.30131744 87.21569244 -18.3014679 87.98017883 C-18.30077404 90.4204099 -18.2930064 92.8605636 -18.28515625 95.30078125 C-18.2832902 96.99757343 -18.28186718 98.69436615 -18.28086853 100.39115906 C-18.2770581 104.8479665 -18.26724043 109.30474113 -18.25616455 113.76153564 C-18.2459187 118.31302446 -18.24136412 122.86451859 -18.23632812 127.41601562 C-18.22561681 136.33985813 -18.20855813 145.26367633 -18.1875 154.1875 C-17.64330917 153.5624205 -17.09911835 152.937341 -16.53843689 152.2933197 C-15.82184402 151.47714676 -15.10525116 150.66097382 -14.36694336 149.82006836 C-13.65775253 149.00936386 -12.94856171 148.19865936 -12.21788025 147.36338806 C-9.93126981 144.912907 -7.73084083 143.27898533 -4.75 141.75 C-3.48349609 141.07130859 -3.48349609 141.07130859 -2.19140625 140.37890625 C15.38613908 133.40731805 37.90996592 135.53279902 55.05859375 142.5078125 C69.1538114 148.94832394 77.9900434 159.98066558 84.125 174 C85.6859191 178.35489302 86.83170655 182.82368086 87.9375 187.3125 C88.09645752 187.95034424 88.25541504 188.58818848 88.41918945 189.24536133 C91.74081005 203.66353857 92.10791025 217.98377693 92.01831055 232.70605469 C91.999988 235.81453662 91.99780219 238.92271945 91.99804688 242.03125 C91.95116868 269.68318327 91.95116868 269.68318327 89.1875 282.25 C89.01782715 283.03310547 88.8481543 283.81621094 88.67333984 284.62304688 C84.09397403 304.71674899 77.26259871 323.86789632 61.8125 338.1875 C61.32136719 338.70699219 60.83023437 339.22648437 60.32421875 339.76171875 C44.67414885 355.20358372 19.98886088 358.61189933 -0.875 358.5 C-1.93290237 358.49726578 -1.93290237 358.49726578 -3.01217651 358.49447632 C-27.27935495 358.38890555 -52.04529888 353.62514962 -70.1875 336.1875 C-95.2723824 307.53066023 -94.67857972 268.17166016 -94.59047651 232.20726371 C-94.58271144 228.02357207 -94.58997134 223.83989695 -94.59463501 219.65620422 C-94.60004663 212.63608183 -94.59302538 205.61605504 -94.57861328 198.59594727 C-94.562315 190.56612927 -94.56757359 182.53654029 -94.5840925 174.50672787 C-94.59786345 167.52404772 -94.5995516 160.54143508 -94.59177649 153.55874568 C-94.58718182 149.42724016 -94.58624003 145.29584088 -94.59638596 141.16434288 C-94.6392734 120.95884094 -93.79539433 101.24785631 -91.1875 81.1875 C-91.00750017 79.80065537 -91.00750017 79.80065537 -90.82386398 78.38579369 C-87.60932129 54.15951715 -78.94649472 32.60162038 -60.1875 16.1875 C-42.57718038 2.81869029 -21.44158114 0.01110387 0 0 Z " fill="#030625" transform="translate(1467.1875,662.8125)"/>
<path d="M0 0 C1.2684375 0.350625 2.536875 0.70125 3.84375 1.0625 C21.75559015 6.76892695 36.60417745 18.72636929 45.28515625 35.46484375 C58.24590185 62.18346508 61.00766416 98.63235127 51.7109375 127.09765625 C47.40872613 139.25132956 41.18943735 147.50580887 30 154 C28.34783122 154.70182657 26.68442861 155.37957879 25 156 C27.01631078 157.51677433 29.0358892 159.02603991 31.078125 160.5078125 C45.34363966 171.12997629 52.7100011 184.18940909 55.42456055 201.74584961 C55.74269055 204.516602 55.9843152 207.28095396 56.1875 210.0625 C56.26572998 211.10833252 56.34395996 212.15416504 56.42456055 213.23168945 C58.12655633 238.96950357 59.53496387 267.29528036 51 292 C50.65195313 293.04534912 50.65195313 293.04534912 50.296875 294.11181641 C43.21828954 315.22178911 32.29996165 332.67158104 12 343 C-2.22468593 349.69060604 -17.34468025 352.4573261 -33 353 C-33.68964844 353.02723145 -34.37929687 353.05446289 -35.08984375 353.08251953 C-46.42665951 353.48415806 -56.92720299 352.42288196 -68 350 C-68.97195313 349.80664062 -69.94390625 349.61328125 -70.9453125 349.4140625 C-87.99732596 345.49464448 -102.97972538 335.35117769 -112.484375 320.6328125 C-116.95725675 312.86290967 -120.24246081 304.90227523 -122.75 296.3125 C-122.94867676 295.65572266 -123.14735352 294.99894531 -123.35205078 294.32226562 C-128.00426438 277.3080003 -127.2495968 259.33068055 -127.125 241.875 C-127.08375 233.66625 -127.0425 225.4575 -127 217 C-103.24 217 -79.48 217 -55 217 C-54.625 240.375 -54.625 240.375 -54.52197266 247.69287109 C-54.48672187 249.63640641 -54.45079575 251.57992964 -54.4140625 253.5234375 C-54.40270264 254.50868408 -54.39134277 255.49393066 -54.37963867 256.5090332 C-54.19323501 265.55297943 -53.52831143 275.45507182 -48 283 C-43.06450315 287.02897702 -38.9082295 287.65214157 -32.5859375 287.375 C-28.74756078 286.81837739 -26.773774 285.70612097 -24 283 C-16.36439217 272.21882615 -17.65619754 257.63915205 -17.68432617 245.08544922 C-17.6874854 242.13862051 -17.66396864 239.19279892 -17.63867188 236.24609375 C-17.58670117 221.29848344 -18.14207507 208.10696111 -28 196 C-35.42362057 189.09765061 -44.04102179 189.66393188 -54 189 C-54 168.21 -54 147.42 -54 126 C-47.565 125.01 -47.565 125.01 -41 124 C-33.56279713 122.18393883 -27.24652671 120.36036167 -22.53125 114.02734375 C-15.40673515 102.28432072 -15.53835448 87.45924029 -18.3125 74.33984375 C-19.68763615 69.65969286 -22.04341413 66.88659179 -25.5625 63.625 C-30.44542227 61.31670947 -34.6907227 61.24831394 -40 62 C-44.25416464 63.7790143 -46.19746896 65.86696666 -48.25 69.875 C-52.20933156 79.89654462 -52.18907999 91.45803989 -53 102 C-76.76 102 -100.52 102 -125 102 C-125 68.89204154 -124.72228028 40.80792028 -101 17 C-100.20722656 16.17242188 -100.20722656 16.17242188 -99.3984375 15.328125 C-75.06545008 -7.88180146 -30.14307995 -8.41331806 0 0 Z " fill="#040725" transform="translate(1295,669)"/>
<path d="M0 0 C1.16909912 -0.0071553 2.33819824 -0.01431061 3.54272461 -0.02168274 C4.82690277 -0.02437164 6.11108093 -0.02706055 7.43417358 -0.02983093 C8.79930799 -0.03609707 10.16444069 -0.04274401 11.52957153 -0.04974365 C16.01517553 -0.07077442 20.50077981 -0.08114738 24.98641968 -0.09111023 C26.53245435 -0.09515862 28.07848885 -0.09927556 29.62452316 -0.10346031 C36.89086282 -0.12251243 44.15719233 -0.13674155 51.42355216 -0.14507228 C59.80014658 -0.1548352 68.17647608 -0.18112971 76.5529772 -0.22157317 C83.03380636 -0.25178532 89.51455982 -0.26654611 95.99545801 -0.26985329 C99.86294269 -0.27219863 103.73014438 -0.28109078 107.59755325 -0.30631447 C111.24036143 -0.32968885 114.88270221 -0.33379129 118.5255661 -0.32355309 C120.48835773 -0.32282592 122.45112612 -0.34185267 124.41381836 -0.36161804 C133.33553766 -0.30938377 139.21917734 1.42345728 146.63485718 6.27217102 C153.91705592 13.88537879 155.1169686 21.76915941 155.01304626 31.98202515 C155.02014065 33.24195343 155.02723504 34.50188171 155.03454441 35.79998964 C155.05336474 39.27194831 155.04129188 42.74319664 155.02382147 46.21513665 C155.01039537 49.96912439 155.02590319 53.72301176 155.03764343 57.47698975 C155.05598496 64.82076235 155.04753139 72.1642682 155.02955521 79.50803239 C155.01550833 85.47789231 155.01164089 91.44767999 155.01499748 97.41755486 C155.01547492 98.26841271 155.01595237 99.11927057 155.01644428 99.995912 C155.01747064 101.72460109 155.018526 103.45329017 155.01961004 105.18197923 C155.02816991 120.4543653 155.01152473 135.72662287 154.98178101 150.99897766 C154.95294027 165.80795182 154.94586339 180.61674093 154.96127319 195.42573547 C154.97804484 211.56549472 154.98206013 227.70516618 154.96456283 243.84492773 C154.96271851 245.56681946 154.96088378 247.2887112 154.95905876 249.01060295 C154.95814667 249.85773263 154.95723458 250.7048623 154.95629485 251.57766258 C154.95069584 257.53875977 154.95399066 263.49981403 154.96060371 269.46090889 C154.96834551 276.72770755 154.96155378 283.99432424 154.93642867 291.26108629 C154.92395374 294.96657413 154.91776255 298.67177894 154.92897034 302.37727737 C154.94090235 306.3982131 154.92171407 310.41840842 154.89952087 314.43930054 C154.90776164 315.60467584 154.91600241 316.77005115 154.9244929 317.97074085 C154.83751273 326.5102662 152.94403788 332.34495969 148.19735718 339.39717102 C140.36766457 347.05287046 133.05788786 347.87788595 122.3789978 347.79414368 C120.98341231 347.80093101 119.58783579 347.80984038 118.192276 347.82069397 C114.42556965 347.8433621 110.65955302 347.83470351 106.89283562 347.81879854 C102.93723671 347.8060742 98.98169394 347.81789769 95.02609253 347.82572937 C88.38531981 347.83480704 81.74482579 347.82288777 75.10409546 347.79902649 C67.44387745 347.77181859 59.78432499 347.78063411 52.1241231 347.80815852 C45.52846882 347.83090257 38.93301405 347.83402393 32.3373332 347.82096517 C28.40623038 347.8131996 24.47543964 347.81204862 20.5443573 347.82864761 C16.84712124 347.84317079 13.15073704 347.83292988 9.4535923 347.80417633 C7.46228304 347.79449174 5.4709011 347.80919859 3.47962952 347.82481384 C-5.03476986 347.7249913 -11.14333917 346.33340939 -17.45886993 340.42118263 C-24.68258253 332.93688378 -25.05288758 324.47742965 -24.99609375 314.58406067 C-25.00077372 313.32921922 -25.00545369 312.07437778 -25.01027548 310.78151083 C-25.02275568 307.31466466 -25.01662885 303.84806744 -25.00731683 300.38122058 C-25.00051438 296.6360984 -25.01101348 292.8910183 -25.01925659 289.14590454 C-25.03258338 281.81562413 -25.0297209 274.48543596 -25.02101867 267.15515196 C-25.01423838 261.19668867 -25.0133269 255.2382512 -25.01659012 249.27978516 C-25.01704982 248.43114296 -25.01750952 247.58250076 -25.01798315 246.70814213 C-25.01894234 244.98404125 -25.01991498 243.25994037 -25.02090092 241.5358395 C-25.02945173 225.37602248 -25.01962554 209.21625656 -25.00349982 193.05644792 C-24.99009692 179.19620114 -24.9924251 165.33602973 -25.0062561 151.4757843 C-25.02231738 135.37305476 -25.02862778 119.27036997 -25.01941931 103.16763353 C-25.01846368 101.44994132 -25.01752057 99.73224911 -25.01659012 98.01455688 C-25.01612729 97.16946063 -25.01566447 96.32436438 -25.01518761 95.45365915 C-25.01259937 89.50364105 -25.01696515 83.55365139 -25.02402878 77.6036377 C-25.03245006 70.35070581 -25.03015045 63.09787131 -25.01418655 55.84495056 C-25.00631226 52.14571262 -25.00319777 48.44663695 -25.013134 44.74740028 C-25.02374856 40.73488657 -25.0110585 36.72278115 -24.99609375 32.71028137 C-25.00278592 31.54451993 -25.00947808 30.3787585 -25.01637304 29.17767096 C-24.94873784 19.83718459 -23.46795644 12.99998463 -16.61514282 6.14717102 C-11.15293384 2.19214691 -6.83774046 0.02870559 0 0 Z M-12.61514282 54.14717102 C-12.61514282 130.37717102 -12.61514282 206.60717102 -12.61514282 285.14717102 C38.20485718 285.14717102 89.02485718 285.14717102 141.38485718 285.14717102 C141.38485718 208.91717102 141.38485718 132.68717102 141.38485718 54.14717102 C90.56485718 54.14717102 39.74485718 54.14717102 -12.61514282 54.14717102 Z " fill="#010202" transform="translate(1609.6151428222656,686.8528289794922)"/>
<path d="M0 0 C0.98678741 -0.00960754 1.97357483 -0.01921509 2.99026489 -0.02911377 C4.07226166 -0.03336365 5.15425842 -0.03761353 6.26904297 -0.04199219 C7.38946991 -0.04769226 8.50989685 -0.05339233 9.66427612 -0.05926514 C12.05693615 -0.06874791 14.44960942 -0.07526202 16.84228516 -0.07910156 C20.41968734 -0.08862353 23.99646801 -0.11953393 27.57373047 -0.15136719 C61.5803589 -0.30828149 100.03346477 3.89745357 125.83300781 28.4675293 C146.65509306 49.1324062 153.43514853 76.02026919 153.76123047 104.66113281 C153.68775715 132.95244308 146.74364563 158.6968507 126.69873047 179.41113281 C114.64463611 191.30267397 99.47133204 198.54414715 83.38623047 203.34863281 C82.61142334 203.58670654 81.83661621 203.82478027 81.03833008 204.07006836 C61.51414978 209.58789762 41.69754723 209.54601076 21.57373047 209.34863281 C8.11591797 209.25582031 8.11591797 209.25582031 -5.61376953 209.16113281 C-5.61376953 181.44113281 -5.61376953 153.72113281 -5.61376953 125.16113281 C7.58623047 125.16113281 20.78623047 125.16113281 34.38623047 125.16113281 C34.38623047 140.34113281 34.38623047 155.52113281 34.38623047 171.16113281 C68.68871865 169.14185066 68.68871865 169.14185066 97.34326172 151.49707031 C110.36129007 136.6122119 113.54685574 116.61463925 112.57714844 97.46191406 C111.22838974 81.20781946 104.8016187 65.06013775 92.38623047 54.16113281 C78.45254066 43.52802094 62.71811229 40.24573543 45.51123047 39.59863281 C41.83998047 39.45425781 38.16873047 39.30988281 34.38623047 39.16113281 C34.38623047 54.34113281 34.38623047 69.52113281 34.38623047 85.16113281 C21.18623047 85.16113281 7.98623047 85.16113281 -5.61376953 85.16113281 C-5.65387834 64.23770394 -5.65387834 64.23770394 -5.66259766 55.35058594 C-5.6685862 49.27546317 -5.67568681 43.20035541 -5.68920898 37.12524414 C-5.70003752 32.22992729 -5.70604629 27.33462652 -5.70864677 22.43929863 C-5.71050109 20.56730331 -5.71412181 18.69530891 -5.71949959 16.82332039 C-5.72670958 14.21072582 -5.72776049 11.59819855 -5.72729492 8.9855957 C-5.7308902 8.20372894 -5.73448547 7.42186218 -5.7381897 6.61630249 C-5.72543358 0.04493759 -5.72543358 0.04493759 0 0 Z " fill="#020000" transform="translate(254.61376953125,852.8388671875)"/>
<path d="M0 0 C1.54790222 0.01138252 1.54790222 0.01138252 3.1270752 0.022995 C4.54482239 0.04194572 4.54482239 0.04194572 5.99121094 0.0612793 C7.23448151 0.07604561 7.23448151 0.07604561 8.50286865 0.09111023 C10.515625 0.23828125 10.515625 0.23828125 12.515625 1.23828125 C12.515625 28.95828125 12.515625 56.67828125 12.515625 85.23828125 C-0.684375 85.23828125 -13.884375 85.23828125 -27.484375 85.23828125 C-27.484375 69.72828125 -27.484375 54.21828125 -27.484375 38.23828125 C-51.72737799 39.81934666 -75.34660694 41.45105516 -92.70703125 60.703125 C-98.12770326 67.6030832 -101.08476355 74.8444987 -103.484375 83.23828125 C-103.73058594 84.08390625 -103.97679687 84.92953125 -104.23046875 85.80078125 C-108.53293162 104.31620767 -106.42468846 126.91602577 -97.16796875 143.62890625 C-91.72341051 152.06733991 -85.22824716 157.39044501 -76.484375 162.23828125 C-75.81277344 162.62757813 -75.14117188 163.016875 -74.44921875 163.41796875 C-57.61525173 172.05248861 -37.2772052 170.89534001 -18.90246582 170.97650146 C-15.34824358 170.99638566 -11.79427937 171.03831452 -8.24023438 171.078125 C-1.32171395 171.15250563 5.5967954 171.20334668 12.515625 171.23828125 C12.54027428 176.48933567 12.55846068 181.7403567 12.57055664 186.99145508 C12.57559718 188.77922146 12.58242954 190.5669837 12.59106445 192.35473633 C12.6031423 194.91879293 12.60885594 197.48279522 12.61328125 200.046875 C12.61844254 200.85104355 12.62360382 201.6552121 12.62892151 202.48374939 C12.62911715 204.4022984 12.57764483 206.32073493 12.515625 208.23828125 C10.92088272 209.83302353 9.25162195 209.38151372 7.04125977 209.39941406 C5.60432014 209.41360634 5.60432014 209.41360634 4.13835144 209.42808533 C2.56359795 209.43467918 2.56359795 209.43467918 0.95703125 209.44140625 C-0.66781441 209.45192772 -0.66781441 209.45192772 -2.32548523 209.46266174 C-5.85765651 209.48030077 -9.38966115 209.486525 -12.921875 209.48828125 C-14.1146405 209.48895599 -15.30740601 209.48963074 -16.53631592 209.49032593 C-54.97015652 209.45555799 -92.68126179 206.24210526 -121.6640625 178.14453125 C-133.43988419 166.26492265 -140.55950691 151.3841841 -144.484375 135.23828125 C-144.66170166 134.51133057 -144.83902832 133.78437988 -145.02172852 133.03540039 C-146.76458292 124.90595803 -146.82269245 116.86409779 -146.80004883 108.58911133 C-146.79691226 106.20411381 -146.82034031 103.82038993 -146.84570312 101.43554688 C-146.96148454 73.79905832 -139.61210071 49.4639381 -120.3515625 28.96875 C-88.49922707 -1.85783225 -41.14801268 -0.37990344 0 0 Z " fill="#010000" transform="translate(988.484375,852.76171875)"/>
<path d="M0 0 C1.36377274 0.01078583 1.36377274 0.01078583 2.75509644 0.02178955 C4.18930939 0.02135147 4.18930939 0.02135147 5.65249634 0.02090454 C8.82334363 0.02230157 11.993958 0.03788034 15.1647644 0.05352783 C17.35908886 0.05725663 19.55341498 0.06010423 21.7477417 0.06210327 C27.53132704 0.06975018 33.3148124 0.08940775 39.09835815 0.11151123 C44.99678189 0.13194691 50.89522174 0.14110011 56.79367065 0.15118408 C68.3731488 0.17265265 79.95252641 0.2078434 91.5319519 0.24884033 C91.5319519 12.78884033 91.5319519 25.32884033 91.5319519 38.24884033 C71.7319519 38.24884033 51.9319519 38.24884033 31.5319519 38.24884033 C31.5319519 54.08884033 31.5319519 69.92884033 31.5319519 86.24884033 C59.5819519 86.24884033 87.6319519 86.24884033 116.5319519 86.24884033 C116.5319519 98.12884033 116.5319519 110.00884033 116.5319519 122.24884033 C114.76612827 124.01466396 112.42823191 123.36869594 110.07678223 123.3732605 C108.90398209 123.36786758 108.90398209 123.36786758 107.70748901 123.36236572 C106.88804306 123.36251175 106.06859711 123.36265778 105.22431946 123.36280823 C102.50261838 123.36210886 99.78098485 123.35431535 97.05929565 123.34649658 C95.17742449 123.34463249 93.29555285 123.34320855 91.41368103 123.34220886 C86.45046661 123.338383 81.48728127 123.32855214 76.52407837 123.31750488 C70.57447663 123.30549797 64.6248652 123.30088885 58.67525482 123.29505157 C49.62746694 123.28534041 40.57974289 123.26618434 31.5319519 123.24884033 C31.5319519 138.75884033 31.5319519 154.26884033 31.5319519 170.24884033 C51.3319519 170.24884033 71.1319519 170.24884033 91.5319519 170.24884033 C91.5319519 183.11884033 91.5319519 195.98884033 91.5319519 209.24884033 C78.64122624 209.2713893 65.75051357 209.28975423 52.85977268 209.3006525 C46.87475924 209.30588184 40.88975994 209.31298041 34.90475464 209.32427979 C29.13411761 209.33510686 23.36349422 209.34111678 17.59284782 209.34371758 C15.38592247 209.34557215 13.1789979 209.34919337 10.97207832 209.35457039 C7.89249149 209.36177843 4.81296176 209.36283137 1.73336792 209.36236572 C0.81124008 209.365961 -0.11088776 209.36955627 -1.06095886 209.3732605 C-7.35399593 209.36289249 -7.35399593 209.36289249 -8.4680481 208.24884033 C-8.57030634 205.59796133 -8.60691116 202.97298589 -8.60176086 200.32148743 C-8.60402642 199.48083235 -8.60629198 198.64017727 -8.60862619 197.77404779 C-8.61499609 194.93498386 -8.61413492 192.0959673 -8.61331177 189.25689697 C-8.61630139 187.23046303 -8.61970346 185.20402966 -8.62348938 183.17759705 C-8.63235345 177.65703384 -8.6346685 172.13648612 -8.63530517 166.61591649 C-8.63625222 162.01571056 -8.63992813 157.41550828 -8.64347726 152.81530374 C-8.65163091 141.96705691 -8.65406066 131.11881839 -8.65335083 120.27056885 C-8.65274974 109.06035293 -8.66330568 97.85018508 -8.67909449 86.63998133 C-8.69214661 77.03236382 -8.69753571 67.42476207 -8.69689542 57.81713575 C-8.69663975 52.07143844 -8.69952866 46.32578382 -8.71007347 40.58009529 C-8.71971542 35.17852309 -8.71986063 29.77703473 -8.71255684 24.37545967 C-8.71150612 22.38801451 -8.71390248 20.40056424 -8.7199173 18.4131279 C-8.7275718 15.70971049 -8.72303624 13.00658741 -8.71528625 10.30317688 C-8.7230016 9.11063556 -8.7230016 9.11063556 -8.73087281 7.8940025 C-8.68489244 0.68574245 -7.04102088 0.02339808 0 0 Z " fill="#020000" transform="translate(435.4680480957031,852.7511596679688)"/>
<path d="M0 0 C1.36377274 0.01078583 1.36377274 0.01078583 2.75509644 0.02178955 C4.18930939 0.02135147 4.18930939 0.02135147 5.65249634 0.02090454 C8.82334363 0.02230157 11.993958 0.03788034 15.1647644 0.05352783 C17.35908886 0.05725663 19.55341498 0.06010423 21.7477417 0.06210327 C27.53132704 0.06975018 33.3148124 0.08940775 39.09835815 0.11151123 C44.99678189 0.13194691 50.89522174 0.14110011 56.79367065 0.15118408 C68.3731488 0.17265265 79.95252641 0.2078434 91.5319519 0.24884033 C91.5319519 12.78884033 91.5319519 25.32884033 91.5319519 38.24884033 C71.7319519 38.24884033 51.9319519 38.24884033 31.5319519 38.24884033 C31.5319519 54.08884033 31.5319519 69.92884033 31.5319519 86.24884033 C37.58410034 86.23723877 43.63624878 86.22563721 49.87179565 86.21368408 C53.69536443 86.20857735 57.51892902 86.20376358 61.34249878 86.20001221 C67.41762154 86.19402366 73.4927293 86.18692305 79.56784058 86.17340088 C84.46315742 86.16257234 89.35845819 86.15656357 94.25378609 86.15396309 C96.12578141 86.15210878 97.99777581 86.14848805 99.86976433 86.14311028 C102.4823589 86.13590029 105.09488617 86.13484937 107.70748901 86.13531494 C108.48935577 86.13171967 109.27122253 86.12812439 110.07678223 86.12442017 C115.41789974 86.13478817 115.41789974 86.13478817 116.5319519 87.24884033 C116.63286666 89.83073479 116.67166689 92.38530533 116.6647644 94.96759033 C116.66572113 95.74066528 116.66667786 96.51374023 116.66766357 97.3102417 C116.66834531 98.94781577 116.66649147 100.58539252 116.662323 102.22296143 C116.65697462 104.73815954 116.66226817 107.25317906 116.66867065 109.76837158 C116.66800987 111.35561156 116.66672871 112.94285143 116.6647644 114.53009033 C116.66678864 115.28737427 116.66881287 116.0446582 116.67089844 116.82489014 C116.64690322 122.13388901 116.64690322 122.13388901 115.5319519 123.24884033 C112.91506749 123.34393592 110.3246629 123.37440033 107.70748901 123.36236572 C106.88804306 123.36251175 106.06859711 123.36265778 105.22431946 123.36280823 C102.50261838 123.36210886 99.78098485 123.35431535 97.05929565 123.34649658 C95.17742449 123.34463249 93.29555285 123.34320855 91.41368103 123.34220886 C86.45046661 123.338383 81.48728127 123.32855214 76.52407837 123.31750488 C70.57447663 123.30549797 64.6248652 123.30088885 58.67525482 123.29505157 C49.62746694 123.28534041 40.57974289 123.26618434 31.5319519 123.24884033 C31.5319519 138.75884033 31.5319519 154.26884033 31.5319519 170.24884033 C51.3319519 170.24884033 71.1319519 170.24884033 91.5319519 170.24884033 C91.5319519 183.11884033 91.5319519 195.98884033 91.5319519 209.24884033 C78.64122624 209.2713893 65.75051357 209.28975423 52.85977268 209.3006525 C46.87475924 209.30588184 40.88975994 209.31298041 34.90475464 209.32427979 C29.13411761 209.33510686 23.36349422 209.34111678 17.59284782 209.34371758 C15.38592247 209.34557215 13.1789979 209.34919337 10.97207832 209.35457039 C7.89249149 209.36177843 4.81296176 209.36283137 1.73336792 209.36236572 C0.81124008 209.365961 -0.11088776 209.36955627 -1.06095886 209.3732605 C-7.35399593 209.36289249 -7.35399593 209.36289249 -8.4680481 208.24884033 C-8.57030634 205.59796133 -8.60691116 202.97298589 -8.60176086 200.32148743 C-8.60402642 199.48083235 -8.60629198 198.64017727 -8.60862619 197.77404779 C-8.61499609 194.93498386 -8.61413492 192.0959673 -8.61331177 189.25689697 C-8.61630139 187.23046303 -8.61970346 185.20402966 -8.62348938 183.17759705 C-8.63235345 177.65703384 -8.6346685 172.13648612 -8.63530517 166.61591649 C-8.63625222 162.01571056 -8.63992813 157.41550828 -8.64347726 152.81530374 C-8.65163091 141.96705691 -8.65406066 131.11881839 -8.65335083 120.27056885 C-8.65274974 109.06035293 -8.66330568 97.85018508 -8.67909449 86.63998133 C-8.69214661 77.03236382 -8.69753571 67.42476207 -8.69689542 57.81713575 C-8.69663975 52.07143844 -8.69952866 46.32578382 -8.71007347 40.58009529 C-8.71971542 35.17852309 -8.71986063 29.77703473 -8.71255684 24.37545967 C-8.71150612 22.38801451 -8.71390248 20.40056424 -8.7199173 18.4131279 C-8.7275718 15.70971049 -8.72303624 13.00658741 -8.71528625 10.30317688 C-8.7230016 9.11063556 -8.7230016 9.11063556 -8.73087281 7.8940025 C-8.68489244 0.68574245 -7.04102088 0.02339808 0 0 Z " fill="#010000" transform="translate(1028.4680480957031,852.7511596679688)"/>
<path d="M0 0 C0.98226563 0.27263672 0.98226563 0.27263672 1.984375 0.55078125 C7.01645332 1.93673502 12.05291387 3.26783512 17.125 4.5 C20.6597184 5.36777791 24.07555136 6.33241827 27.5 7.5625 C31.99672482 9.13226576 36.52764945 9.82108682 41.2265625 10.53125 C44 11 44 11 47.5 12.0625 C51.74192764 13.19873062 55.84432554 13.47645794 60.21484375 13.78515625 C63.187451 14.01445975 66.06384232 14.48936388 69 15 C75.66953991 16.01432586 82.33050915 16.10460003 89.0625 16.125 C89.90119629 16.12959229 90.73989258 16.13418457 91.60400391 16.13891602 C96.45754441 16.12703639 101.18489987 15.8393542 106.00170898 15.24511719 C108.49609707 14.93914704 110.99436985 14.75196895 113.5 14.5625 C117.6913003 14.18942181 121.66782966 13.52181402 125.75390625 12.53125 C128.15829621 11.9625595 130.57062397 11.51169125 133 11.0625 C137.10472883 10.25815189 140.96409654 9.10680932 144.89453125 7.68359375 C147.20963349 6.93193718 149.61320016 6.47735997 152 6 C152 36.36 152 66.72 152 98 C101.51 98 51.02 98 -1 98 C-1.020625 82.015625 -1.04125 66.03125 -1.0625 49.5625 C-1.071604 44.50752197 -1.08070801 39.45254395 -1.09008789 34.24438477 C-1.09460449 28.0916748 -1.09460449 28.0916748 -1.09544373 25.2151947 C-1.09698357 23.19773641 -1.10050931 21.18027906 -1.10557556 19.16282654 C-1.11285072 16.11447541 -1.1139075 13.06618072 -1.11352539 10.01782227 C-1.11892255 8.66012269 -1.11892255 8.66012269 -1.12442875 7.27499485 C-1.11402634 1.11402634 -1.11402634 1.11402634 0 0 Z " fill="#43ACDB" transform="translate(1599,874)"/>
<path d="M0 0 C0.83491974 -0.00807175 1.66983948 -0.01614349 2.53005981 -0.02445984 C4.30045485 -0.03831575 6.07087676 -0.04903114 7.84130859 -0.05688477 C10.55227134 -0.07410416 13.26201683 -0.11797581 15.97265625 -0.16210938 C17.69009517 -0.17223529 19.40754449 -0.18075171 21.125 -0.1875 C21.9375827 -0.20500809 22.75016541 -0.22251617 23.58737183 -0.24055481 C25.88232422 -0.23168945 25.88232422 -0.23168945 29.6953125 0.23828125 C32.47100217 3.12828617 33.63226037 6.34558843 34.94091797 10.08789062 C35.35963165 11.27390366 35.77834534 12.45991669 36.20974731 13.68186951 C36.66077081 14.98188667 37.11168523 16.28194169 37.5625 17.58203125 C38.03823649 18.93704282 38.51463969 20.29182048 38.9916687 21.64637756 C40.00212237 24.51956045 41.00833401 27.39417808 42.0111084 30.27005005 C43.56972685 34.73971664 45.1377345 39.20604742 46.70800781 43.67163086 C47.22974195 45.15556138 47.75147048 46.63949387 48.27319336 48.12342834 C48.5301297 48.85418139 48.78706604 49.58493443 49.05178833 50.3378315 C49.82696597 52.54357701 50.60123038 54.74964112 51.37524414 56.95579529 C55.34170176 68.25812646 59.3633257 79.53961301 63.4453125 90.80078125 C63.70294373 91.51282715 63.96057495 92.22487305 64.22601318 92.95849609 C66.67745386 99.73292244 69.14612088 106.49991808 71.6953125 113.23828125 C75.37143857 104.68946788 78.6299408 96.04606505 81.70703125 87.265625 C82.16550631 85.9670224 82.62440253 84.66856843 83.08369446 83.37025452 C84.76553641 78.61353813 86.440724 73.85448692 88.11462402 69.0949707 C89.54081408 65.04011196 90.97025292 60.98643068 92.40442848 56.93438911 C93.07129318 55.04603192 93.73328097 53.15595475 94.39518738 51.26585388 C95.00140678 49.55245567 95.00140678 49.55245567 95.61987305 47.80444336 C96.15018379 46.29653481 96.15018379 46.29653481 96.69120789 44.75816345 C97.6953125 42.23828125 97.6953125 42.23828125 99.6953125 39.23828125 C102.74606334 38.97179425 105.59157429 38.89070979 108.640625 38.9453125 C109.96814285 38.95167976 109.96814285 38.95167976 111.32247925 38.95817566 C114.15539695 38.97499866 116.98760902 39.012657 119.8203125 39.05078125 C121.73827099 39.06582343 123.65624061 39.07951264 125.57421875 39.09179688 C130.28152281 39.12491398 134.98829794 39.1767207 139.6953125 39.23828125 C137.63744552 45.61493276 135.35192645 51.8729508 132.9140625 58.11328125 C132.54866867 59.05381348 132.18327484 59.9943457 131.80680847 60.96337891 C130.60493229 64.05577758 129.40008752 67.14701093 128.1953125 70.23828125 C127.34066856 72.43610728 126.4862621 74.63402566 125.63208008 76.83203125 C123.86065254 81.38969386 122.08821151 85.94696022 120.31494141 90.50390625 C116.71474833 99.75705293 113.12336787 109.01361284 109.53369141 118.27084351 C108.37971727 121.24626201 107.22504269 124.22140804 106.0703125 127.1965332 C101.85792308 138.05385174 97.66110697 148.91705288 93.48169899 159.78710556 C92.71895744 161.77055268 91.95582956 163.75385067 91.19255066 165.73709106 C90.81729421 166.71214442 90.81729421 166.71214442 90.43445683 167.70689583 C89.93172412 169.01315011 89.42897443 170.31939784 88.92620754 171.62563896 C87.69453159 174.82633712 86.46412198 178.0275117 85.23641968 181.22973633 C83.87116412 184.789585 82.50231888 188.34803493 81.1328125 191.90625 C80.72742752 192.96643845 80.32204254 194.02662689 79.90437317 195.11894226 C78.03917185 199.95572046 76.13646892 204.66257531 73.6953125 209.23828125 C71.38256836 209.16601562 71.38256836 209.16601562 68.6953125 208.23828125 C67.39723389 205.89439026 66.5458791 203.90354318 65.69921875 201.39453125 C65.30098907 200.29948273 65.30098907 200.29948273 64.89471436 199.18231201 C64.31024024 197.56890902 63.73500337 195.95213848 63.16763306 194.3326416 C61.90748291 190.73931371 60.60110818 187.16333355 59.29704285 183.58575439 C58.58204504 181.62391898 57.86923233 179.66128608 57.15840149 177.69793701 C53.07147149 166.43698792 48.74309345 155.27092937 44.4100647 144.10287476 C42.51738014 139.22409094 40.63021487 134.34317907 38.74287415 129.46232605 C37.79203023 127.00341531 36.84092963 124.54460381 35.88957214 122.08589172 C30.28319216 107.59522428 24.70620029 93.09326309 19.13671875 78.58837891 C15.26109409 68.49700881 11.37749963 58.40893227 7.46685791 48.33106995 C5.59493688 43.50588765 3.72715991 38.67910602 1.85968018 33.85220337 C0.96603862 31.54587869 0.07036214 29.24034136 -0.82745361 26.93563843 C-2.06850827 23.7494271 -3.30255809 20.56058415 -4.53515625 17.37109375 C-4.90391373 16.42987167 -5.2726712 15.4886496 -5.65260315 14.51890564 C-7.34331925 10.12433875 -8.91098919 5.97503841 -9.3046875 1.23828125 C-7.23497595 -0.8314303 -2.85179824 0.02579627 0 0 Z " fill="#010000" transform="translate(579.3046875,852.76171875)"/>
<path d="M0 0 C13.2 0 26.4 0 40 0 C40 57.42 40 114.84 40 174 C47.59 174 55.18 174 63 174 C64.70492881 175.70492881 64.1280442 177.84534261 64.13894653 180.11901855 C64.13591019 181.18932312 64.13591019 181.18932312 64.1328125 182.28125 C64.13376923 183.00993286 64.13472595 183.73861572 64.13571167 184.48937988 C64.13639335 186.0327971 64.13453988 187.57621717 64.13037109 189.11962891 C64.12502262 191.489974 64.13031642 193.86012959 64.13671875 196.23046875 C64.13605797 197.72656292 64.1347768 199.22265697 64.1328125 200.71875 C64.13483673 201.43228638 64.13686096 202.14582275 64.13894653 202.88098145 C64.11495191 207.88504809 64.11495191 207.88504809 63 209 C60.32749933 209.10045053 57.68081419 209.13616649 55.0078125 209.12939453 C53.7517923 209.13202301 53.7517923 209.13202301 52.47039795 209.13470459 C49.68857786 209.13912401 46.90682079 209.1361848 44.125 209.1328125 C42.20068347 209.13348551 40.27636702 209.13445552 38.35205078 209.13571167 C34.31346835 209.13718877 30.274908 209.13503371 26.23632812 209.13037109 C21.04731489 209.1246738 15.85835337 209.12795274 10.66934204 209.13394356 C6.6940878 209.13754886 2.71884591 209.13641073 -1.25640869 209.13381577 C-3.1702678 209.13314641 -5.08412802 209.13397522 -6.99798584 209.13629532 C-9.6679585 209.13882133 -12.3378462 209.13498198 -15.0078125 209.12939453 C-15.80680969 209.13141876 -16.60580688 209.13344299 -17.42901611 209.13552856 C-22.8857375 209.1142625 -22.8857375 209.1142625 -24 208 C-24.08847743 205.47905924 -24.11527301 202.98569107 -24.09765625 200.46484375 C-24.0962413 199.71159317 -24.09482635 198.95834259 -24.09336853 198.18226624 C-24.08775376 195.7673044 -24.07519883 193.35243399 -24.0625 190.9375 C-24.0574869 189.30403779 -24.05292366 187.67057414 -24.04882812 186.03710938 C-24.03777954 182.02470415 -24.02050506 178.01236759 -24 174 C-16.83837387 170.41918693 -8.00694143 173 0 173 C0 115.91 0 58.82 0 0 Z " fill="#000000" transform="translate(762,853)"/>
<path d="M0 0 C49.17 0 98.34 0 149 0 C149 31.83193277 149 31.83193277 143.140625 39.40234375 C142.20476562 40.16224609 142.20476562 40.16224609 141.25 40.9375 C140.63640625 41.46214844 140.0228125 41.98679687 139.390625 42.52734375 C132.39773793 46.8350536 126.15901542 47.44068985 118.13696289 47.40405273 C117.07735855 47.41091599 116.01775421 47.41777924 114.92604065 47.42485046 C111.44144088 47.4430743 107.95729322 47.43928717 104.47265625 47.43359375 C102.03942214 47.43815756 99.60618933 47.44346373 97.17295837 47.44947815 C92.07985183 47.45840054 86.98690217 47.4559958 81.89379883 47.44604492 C75.37944221 47.43455504 68.86562764 47.4547722 62.3513422 47.48396206 C57.32832929 47.50234113 52.30544587 47.50202816 47.28240776 47.49632454 C44.88113075 47.49617154 42.47984484 47.50219781 40.07859993 47.51461601 C36.71620156 47.52955628 33.35479964 47.51882559 29.99243164 47.50170898 C28.51694855 47.51621094 28.51694855 47.51621094 27.01165771 47.53100586 C19.24720867 47.44857999 13.1199344 45.70394314 7.1875 40.5625 C6.465625 39.716875 5.74375 38.87125 5 38 C4.2575 37.13375 3.515 36.2675 2.75 35.375 C-4.61589103 25.3784336 0 12.0616849 0 0 Z " fill="#191919" transform="translate(1600,976)"/>
<path d="M0 0 C1.6191053 -0.01073296 1.6191053 -0.01073296 3.2709198 -0.02168274 C6.80987937 -0.03847876 10.34755597 -0.01922028 13.88647461 0.00219727 C16.36169031 0.0013678 18.83690595 -0.00109451 21.31211853 -0.00511169 C26.48754551 -0.00796342 31.66253823 0.00667236 36.83789062 0.03417969 C43.45760562 0.06827832 50.07654541 0.06223182 56.69629765 0.04351711 C61.80340489 0.03292829 66.91033303 0.04190193 72.01742363 0.05690193 C74.45776271 0.06206912 76.8981206 0.0616198 79.33845711 0.05535698 C82.75338843 0.04988155 86.16722483 0.07035567 89.58203125 0.09765625 C91.08085342 0.08786743 91.08085342 0.08786743 92.60995483 0.07788086 C100.22011084 0.18086344 106.41576576 1.80576168 112.28491211 6.81469727 C112.90495117 7.55848633 113.52499023 8.30227539 114.16381836 9.06860352 C115.12094727 10.18041992 115.12094727 10.18041992 116.09741211 11.31469727 C122.49447062 20.41171333 119.72631836 27.03718302 119.72631836 39.63110352 C70.22631836 39.63110352 20.72631836 39.63110352 -30.27368164 39.63110352 C-30.27368164 17.42648305 -30.27368164 17.42648305 -26.27368164 11.63110352 C-25.57243164 10.55860352 -24.87118164 9.48610352 -24.14868164 8.38110352 C-17.04903718 1.59013924 -9.5745475 -0.11226292 0 0 Z " fill="#191919" transform="translate(1629.273681640625,697.368896484375)"/>
<path d="M0 0 C1.16909912 -0.0071553 2.33819824 -0.01431061 3.54272461 -0.02168274 C4.82690277 -0.02437164 6.11108093 -0.02706055 7.43417358 -0.02983093 C8.79930799 -0.03609707 10.16444069 -0.04274401 11.52957153 -0.04974365 C16.01517553 -0.07077442 20.50077981 -0.08114738 24.98641968 -0.09111023 C26.53245435 -0.09515862 28.07848885 -0.09927556 29.62452316 -0.10346031 C36.89086282 -0.12251243 44.15719233 -0.13674155 51.42355216 -0.14507228 C59.80014658 -0.1548352 68.17647608 -0.18112971 76.5529772 -0.22157317 C83.03380636 -0.25178532 89.51455982 -0.26654611 95.99545801 -0.26985329 C99.86294269 -0.27219863 103.73014438 -0.28109078 107.59755325 -0.30631447 C111.24036143 -0.32968885 114.88270221 -0.33379129 118.5255661 -0.32355309 C120.48835773 -0.32282592 122.45112612 -0.34185267 124.41381836 -0.36161804 C133.33553766 -0.30938377 139.21917734 1.42345728 146.63485718 6.27217102 C153.91705592 13.88537879 155.1169686 21.76915941 155.01304626 31.98202515 C155.02014065 33.24195343 155.02723504 34.50188171 155.03454441 35.79998964 C155.05336474 39.27194831 155.04129188 42.74319664 155.02382147 46.21513665 C155.01039537 49.96912439 155.02590319 53.72301176 155.03764343 57.47698975 C155.05598496 64.82076235 155.04753139 72.1642682 155.02955521 79.50803239 C155.01550833 85.47789231 155.01164089 91.44767999 155.01499748 97.41755486 C155.01547492 98.26841271 155.01595237 99.11927057 155.01644428 99.995912 C155.01747064 101.72460109 155.018526 103.45329017 155.01961004 105.18197923 C155.02816991 120.4543653 155.01152473 135.72662287 154.98178101 150.99897766 C154.95294027 165.80795182 154.94586339 180.61674093 154.96127319 195.42573547 C154.97804484 211.56549472 154.98206013 227.70516618 154.96456283 243.84492773 C154.96271851 245.56681946 154.96088378 247.2887112 154.95905876 249.01060295 C154.95814667 249.85773263 154.95723458 250.7048623 154.95629485 251.57766258 C154.95069584 257.53875977 154.95399066 263.49981403 154.96060371 269.46090889 C154.96834551 276.72770755 154.96155378 283.99432424 154.93642867 291.26108629 C154.92395374 294.96657413 154.91776255 298.67177894 154.92897034 302.37727737 C154.94090235 306.3982131 154.92171407 310.41840842 154.89952087 314.43930054 C154.90776164 315.60467584 154.91600241 316.77005115 154.9244929 317.97074085 C154.83751273 326.5102662 152.94403788 332.34495969 148.19735718 339.39717102 C140.36766457 347.05287046 133.05788786 347.87788595 122.3789978 347.79414368 C120.98341231 347.80093101 119.58783579 347.80984038 118.192276 347.82069397 C114.42556965 347.8433621 110.65955302 347.83470351 106.89283562 347.81879854 C102.93723671 347.8060742 98.98169394 347.81789769 95.02609253 347.82572937 C88.38531981 347.83480704 81.74482579 347.82288777 75.10409546 347.79902649 C67.44387745 347.77181859 59.78432499 347.78063411 52.1241231 347.80815852 C45.52846882 347.83090257 38.93301405 347.83402393 32.3373332 347.82096517 C28.40623038 347.8131996 24.47543964 347.81204862 20.5443573 347.82864761 C16.84712124 347.84317079 13.15073704 347.83292988 9.4535923 347.80417633 C7.46228304 347.79449174 5.4709011 347.80919859 3.47962952 347.82481384 C-5.03476986 347.7249913 -11.14333917 346.33340939 -17.45886993 340.42118263 C-24.68258253 332.93688378 -25.05288758 324.47742965 -24.99609375 314.58406067 C-25.00077372 313.32921922 -25.00545369 312.07437778 -25.01027548 310.78151083 C-25.02275568 307.31466466 -25.01662885 303.84806744 -25.00731683 300.38122058 C-25.00051438 296.6360984 -25.01101348 292.8910183 -25.01925659 289.14590454 C-25.03258338 281.81562413 -25.0297209 274.48543596 -25.02101867 267.15515196 C-25.01423838 261.19668867 -25.0133269 255.2382512 -25.01659012 249.27978516 C-25.01704982 248.43114296 -25.01750952 247.58250076 -25.01798315 246.70814213 C-25.01894234 244.98404125 -25.01991498 243.25994037 -25.02090092 241.5358395 C-25.02945173 225.37602248 -25.01962554 209.21625656 -25.00349982 193.05644792 C-24.99009692 179.19620114 -24.9924251 165.33602973 -25.0062561 151.4757843 C-25.02231738 135.37305476 -25.02862778 119.27036997 -25.01941931 103.16763353 C-25.01846368 101.44994132 -25.01752057 99.73224911 -25.01659012 98.01455688 C-25.01612729 97.16946063 -25.01566447 96.32436438 -25.01518761 95.45365915 C-25.01259937 89.50364105 -25.01696515 83.55365139 -25.02402878 77.6036377 C-25.03245006 70.35070581 -25.03015045 63.09787131 -25.01418655 55.84495056 C-25.00631226 52.14571262 -25.00319777 48.44663695 -25.013134 44.74740028 C-25.02374856 40.73488657 -25.0110585 36.72278115 -24.99609375 32.71028137 C-25.00278592 31.54451993 -25.00947808 30.3787585 -25.01637304 29.17767096 C-24.94873784 19.83718459 -23.46795644 12.99998463 -16.61514282 6.14717102 C-11.15293384 2.19214691 -6.83774046 0.02870559 0 0 Z M-14.11514282 15.64717102 C-14.74420532 16.37935852 -15.37326782 17.11154602 -16.02139282 17.86592102 C-18.85433435 21.92091575 -19.86485748 25.45708519 -19.86961842 30.37842274 C-19.87545061 31.41801287 -19.8812828 32.45760301 -19.88729173 33.52869588 C-19.88351241 34.66428636 -19.87973308 35.79987684 -19.87583923 36.96987915 C-19.87966478 38.1813218 -19.88349033 39.39276445 -19.8874318 40.64091748 C-19.89596719 44.00051822 -19.89552735 47.35990019 -19.89125121 50.7194947 C-19.88878585 54.34400898 -19.89779585 57.96849746 -19.9052887 61.59300232 C-19.91804361 68.69306558 -19.91982835 75.79309104 -19.91748843 82.89316384 C-19.91570578 88.66481521 -19.91745378 94.43645509 -19.92171288 100.20810509 C-19.92230806 101.02940014 -19.92290325 101.8506952 -19.92351648 102.69687798 C-19.92472823 104.36533346 -19.92594236 106.03378894 -19.92715885 107.70224442 C-19.93803772 123.35271341 -19.93587043 139.00316085 -19.92977401 154.65363105 C-19.92460613 168.96805868 -19.93585627 183.28241822 -19.95487223 197.59683237 C-19.97424983 212.29623705 -19.98250667 226.99560952 -19.97874898 241.69502705 C-19.97683661 249.94703008 -19.97932783 258.19897518 -19.99346352 266.45096779 C-20.00537739 273.47706061 -20.00678226 280.50305987 -19.99467335 287.52915398 C-19.98878431 291.11293721 -19.98768575 294.69654929 -19.99967575 298.28032112 C-20.01253159 302.1681362 -20.0020704 306.05569196 -19.98936462 309.94351196 C-19.99673891 311.07241028 -20.00411319 312.20130859 -20.01171094 313.36441594 C-19.94934046 322.42946655 -18.29276022 329.48705548 -11.82807732 336.18668365 C-4.35715015 342.80534244 4.26584904 343.87764308 13.87362671 343.7624054 C15.07021912 343.76795441 16.26681152 343.77350342 17.49966431 343.77922058 C20.74783646 343.78893434 23.99494242 343.7765467 27.24301386 343.75293541 C30.66072228 343.73265459 34.07840092 343.73871467 37.49615479 343.74104309 C43.23051953 343.74098972 48.96455259 343.72134935 54.69882202 343.68916321 C61.30810019 343.6522437 67.9169451 343.64349461 74.52631295 343.65046072 C80.91383981 343.65678631 87.30121973 343.64597582 93.68871689 343.62649536 C96.3942361 343.61836684 99.09967974 343.61560333 101.80521011 343.6171875 C105.58866984 343.61538357 109.37152241 343.59395034 113.15487671 343.5670929 C114.26472931 343.5700235 115.37458191 343.5729541 116.51806641 343.57597351 C126.26615235 343.46957274 133.50684816 341.76720245 140.66220093 334.96748352 C148.42172764 326.76807435 148.68243018 317.97691415 148.63882446 307.26741028 C148.64194444 306.08607277 148.64506443 304.90473527 148.64827895 303.68759966 C148.65485455 300.42601327 148.65251694 297.16457692 148.64630651 293.90299439 C148.64176934 290.37874208 148.64877205 286.85450957 148.65426636 283.33026123 C148.66314851 276.43313883 148.6612436 269.53606002 148.65544108 262.63893592 C148.65091996 257.03230741 148.65031363 251.42569109 148.65248871 245.81906128 C148.65294841 244.62103274 148.65294841 244.62103274 148.65341739 243.39880159 C148.65405686 241.77616671 148.65470529 240.15353184 148.65536258 238.53089696 C148.66106242 223.32392263 148.6545134 208.11697243 148.64376184 192.91000205 C148.63482665 179.86844082 148.63637879 166.8269152 148.64559937 153.78535461 C148.6563081 138.63191056 148.66051313 123.47848765 148.65437484 108.32504034 C148.65373776 106.70845382 148.65310901 105.09186729 148.65248871 103.47528076 C148.65218016 102.67993849 148.65187161 101.88459622 148.65155371 101.06515267 C148.64982858 95.46680031 148.65273794 89.86846137 148.65744781 84.27011108 C148.66306334 77.44539257 148.66152606 70.62072006 148.65088633 63.7960068 C148.64563866 60.31552641 148.6435574 56.83512265 148.65018463 53.35464287 C148.65564714 49.57866267 148.64879701 45.80289821 148.63882446 42.02693176 C148.64328591 40.93120739 148.64774735 39.83548303 148.65234399 38.70655489 C148.60150602 28.78657436 147.08637348 20.81008629 140.38485718 13.14717102 C134.96824211 8.72883996 130.30626762 6.03574176 123.23200989 5.99327087 C121.63198372 5.98037018 121.63198372 5.98037018 119.99963379 5.96720886 C118.82923553 5.96294891 117.65883728 5.95868896 116.45297241 5.95429993 C114.60372414 5.94203369 114.60372414 5.94203369 112.71711731 5.92951965 C108.62589848 5.90465221 104.53471666 5.8879894 100.44345093 5.87373352 C99.03240516 5.86837189 97.62135945 5.86299438 96.2103138 5.85760117 C90.33661885 5.83597145 84.46292662 5.8172385 78.58920193 5.80597878 C70.18781344 5.78976527 61.78688932 5.75665258 53.38567585 5.69957793 C47.47043378 5.66077179 41.55531533 5.64133324 35.63994938 5.63605821 C32.11160159 5.6324178 28.58374932 5.62053907 25.05554008 5.58795547 C21.11105914 5.55205098 17.16715194 5.5562728 13.22250366 5.56367493 C12.06627502 5.54726959 10.91004639 5.53086426 9.71878052 5.51396179 C0.22298437 5.58666884 -7.86682559 8.12800961 -14.11514282 15.64717102 Z " fill="#1A1A1A" transform="translate(1609.6151428222656,686.8528289794922)"/>
<path d="M0 0 C3.76894586 1.2842334 6.37377216 3.17942559 8.8125 6.375 C11.08357928 11.39528052 12.25059302 15.68807946 12.2746582 21.21386719 C12.28895622 23.02670197 12.28895622 23.02670197 12.30354309 24.87615967 C12.30263168 26.16999573 12.30172028 27.46383179 12.30078125 28.796875 C12.30467487 30.15439992 12.3090109 31.51192363 12.31376648 32.8694458 C12.32120927 35.71053011 12.32095265 38.55149013 12.31567383 41.39257812 C12.30989714 45.00797574 12.3267754 48.62285804 12.3500185 52.23817062 C12.36485837 55.04200139 12.36561348 57.84571119 12.36250877 60.64957428 C12.36326236 62.62242394 12.37705842 64.59525501 12.39118958 66.5680542 C12.34791623 75.05186886 11.75350679 82.73650561 7.0625 90 C3.32989994 93.61949096 0.28592656 94.30933936 -4.875 94.375 C-10.08524492 94.26090705 -13.18397612 93.81602388 -17 90 C-21.19370534 83.62122489 -22.10704789 77.31508723 -22.17700195 69.75439453 C-22.18983719 68.53938263 -22.20267242 67.32437073 -22.21589661 66.07254028 C-22.22328354 64.77243011 -22.23067047 63.47231995 -22.23828125 62.1328125 C-22.24235678 61.46428127 -22.2464323 60.79575005 -22.25063133 60.1069603 C-22.2714095 56.57049631 -22.28574849 53.03407021 -22.29516602 49.49755859 C-22.30623418 45.86395199 -22.34066155 42.23095706 -22.38033772 38.5975666 C-22.40658811 35.78525727 -22.41486505 32.97309228 -22.41844749 30.16067123 C-22.42562696 28.17547601 -22.45202096 26.19037988 -22.47883606 24.20535278 C-22.46039406 16.50650009 -22.15656446 10.23254696 -16.48164368 4.45388794 C-11.08932223 -0.21597828 -6.95849402 -0.75001732 0 0 Z " fill="#EDEDED" transform="translate(1470,862)"/>
<path d="M0 0 C3.40920514 2.411389 5.69634878 5.08019755 7.5625 8.8125 C7.765625 10.6875 7.765625 10.6875 7.8125 12.8125 C7.83828125 13.51375 7.8640625 14.215 7.890625 14.9375 C7.78234375 15.55625 7.6740625 16.175 7.5625 16.8125 C0.85103686 21.28680876 -9.44241945 20.56781888 -17.17578125 19.3984375 C-23.1224645 18.1275355 -23.1224645 18.1275355 -24.4375 16.8125 C-25.10673278 12.86487372 -25.27406149 9.26490154 -23.23828125 5.73046875 C-16.96347194 -1.77717463 -9.2941668 -3.21071217 0 0 Z " fill="#010101" transform="translate(1681.4375,983.1875)"/>
<path d="M0 0 C0.58265625 0.144375 1.1653125 0.28875 1.765625 0.4375 C11.59683447 2.66343422 21.06062121 2.32525051 31 1 C29.42909498 6.14114369 26.6994264 8.4645973 22.09765625 11.08203125 C18.38835255 12.70528334 14.95534072 12.73690265 11 12 C6.40583409 9.73858603 2.85024378 7.27536567 0 3 C0 2.01 0 1.02 0 0 Z " fill="#7A7A7A" transform="translate(1657,1000)"/>
<path d="M0 0 C1.50046875 0.00386719 1.50046875 0.00386719 3.03125 0.0078125 C4.0315625 0.00523437 5.031875 0.00265625 6.0625 0 C8.53125 0.1328125 8.53125 0.1328125 9.53125 1.1328125 C9.60369053 3.15245449 9.61502188 5.17448374 9.59375 7.1953125 C9.58472656 8.30003906 9.57570313 9.40476562 9.56640625 10.54296875 C9.55480469 11.39761719 9.54320312 12.25226562 9.53125 13.1328125 C7.55215602 13.15967803 5.57296029 13.17914625 3.59375 13.1953125 C2.49160156 13.20691406 1.38945313 13.21851563 0.25390625 13.23046875 C-2.46875 13.1328125 -2.46875 13.1328125 -3.46875 12.1328125 C-3.56726171 10.30165367 -3.59847629 8.46661317 -3.59375 6.6328125 C-3.59632812 5.6325 -3.59890625 4.6321875 -3.6015625 3.6015625 C-3.42265191 0.27593033 -3.32563217 0.17891059 0 0 Z " fill="#191919" transform="translate(1669.46875,989.8671875)"/>
<path d="M0 0 C10.56 0 21.12 0 32 0 C31.67 0.99 31.34 1.98 31 3 C21.1 3 11.2 3 1 3 C0.67 2.01 0.34 1.02 0 0 Z " fill="#A2A2A2" transform="translate(1659,725)"/>
<path d="M0 0 C1.30195312 0.00322266 2.60390625 0.00644531 3.9453125 0.00976562 C5.32552149 0.01812159 6.70572982 0.02658654 8.0859375 0.03515625 C9.47395676 0.04017124 10.86197772 0.04473415 12.25 0.04882812 C15.65368882 0.06064649 19.05729189 0.07712191 22.4609375 0.09765625 C22.7909375 1.08765625 23.1209375 2.07765625 23.4609375 3.09765625 C12.9009375 3.09765625 2.3409375 3.09765625 -8.5390625 3.09765625 C-8.5390625 2.43765625 -8.5390625 1.77765625 -8.5390625 1.09765625 C-5.66887809 -0.33743596 -3.20362527 -0.01392881 0 0 Z " fill="#020202" transform="translate(1667.5390625,721.90234375)"/>
</svg>
